M48
; DRILL file {KiCad 7.0.5} date Mon Mar 25 17:01:37 2024
; FORMAT={-:-/ absolute / metric / decimal}
; #@! TF.CreationDate,2024-03-25T17:01:37+04:00
; #@! TF.GenerationSoftware,Kicad,Pcbnew,7.0.5
; #@! TF.FileFunction,Plated,1,2,PTH
FMAT,2
METRIC
; #@! TA.AperFunction,Plated,PTH,ComponentDrill
T1C0.700
; #@! TA.AperFunction,Plated,PTH,ComponentDrill
T2C0.800
; #@! TA.AperFunction,Plated,PTH,ComponentDrill
T3C1.000
; #@! TA.AperFunction,Plated,PTH,ComponentDrill
T4C1.100
; #@! TA.AperFunction,Plated,PTH,ComponentDrill
T5C1.300
; #@! TA.AperFunction,Plated,PTH,ComponentDrill
T6C1.500
; #@! TA.AperFunction,Plated,PTH,ComponentDrill
T7C1.520
%
G90
G05
T1
X88.9Y82.55
X91.44Y85.09
X93.98Y82.55
T2
X99.06Y82.55
X101.6Y86.36
X101.6Y101.6
X105.41Y107.95
X107.95Y95.25
X114.3Y82.55
X118.11Y127.0
X120.65Y82.55
X120.65Y107.95
X123.19Y95.25
X133.35Y127.0
X135.89Y82.55
T3
X87.75Y120.65
X87.75Y139.7
X95.25Y120.65
X95.25Y139.7
X100.45Y76.2
X106.8Y120.65
X106.8Y133.35
X107.95Y76.2
X107.95Y88.9
X113.15Y101.6
X114.3Y120.65
X114.3Y133.35
X115.45Y88.9
X120.65Y101.6
X120.65Y114.3
X120.65Y120.65
X127.0Y88.9
X133.35Y114.3
X133.35Y120.65
X134.5Y88.9
X146.05Y114.3
X146.05Y116.84
X146.05Y119.38
T4
X128.27Y139.7
X130.81Y139.7
X133.35Y139.7
T5
X130.35Y101.6
X133.35Y101.6
T6
X120.65Y76.2
T7
X88.9Y96.52
X88.9Y101.6
X109.22Y146.05
X114.3Y146.05
T0
M30
